<?xml version="1.0" encoding="utf-8"?>
<!-- Generator: Adobe Illustrator 16.0.0, SVG Export Plug-In . SVG Version: 6.00 Build 0)  -->
<!DOCTYPE svg PUBLIC "-//W3C//DTD SVG 1.1//EN" "http://www.w3.org/Graphics/SVG/1.1/DTD/svg11.dtd">
<svg version="1.1" id="Layer_1" xmlns="http://www.w3.org/2000/svg" xmlns:xlink="http://www.w3.org/1999/xlink" x="0px" y="0px"
	 width="44.229px" height="38.701px" viewBox="0 0 44.229 38.701" enable-background="new 0 0 44.229 38.701" xml:space="preserve">
<path fill="#7BBED5" d="M19.715,0.333h7.688c0.775,0,1.602,0.295,2.309,0.767c0.67,0.455,1.264,1.094,1.604,1.808l4.387,9.147
	l0.01,0.02l8.188,17.086c0.223,0.471,0.33,0.936,0.33,1.367c0,0.469-0.125,0.908-0.354,1.291c-0.246,0.404-0.596,0.725-1.041,0.934
	c-0.361,0.166-0.768,0.262-1.213,0.262H26.268l-1.346,2.807c-0.338,0.705-0.773,1.432-1.379,2.021
	c-0.707,0.684-1.604,1.158-2.764,1.189h-0.035v0.002h-0.043H2.605c-0.445,0-0.85-0.092-1.207-0.26
	c-0.449-0.209-0.799-0.529-1.041-0.932C0.123,37.458,0,37.02,0,36.551c0-0.432,0.107-0.896,0.334-1.369L15.799,2.907
	c0.34-0.714,0.934-1.353,1.607-1.808C18.109,0.628,18.936,0.333,19.715,0.333z"/>
<path fill-rule="evenodd" clip-rule="evenodd" fill="#B4DAE6" d="M26.986,31.514h14.635c0.953,0,1.363-0.773,0.912-1.717
	L35.17,14.438L26.986,31.514z"/>
<path fill-rule="evenodd" clip-rule="evenodd" fill="#006194" d="M19.715,1.833h0.117h0.123h0.121h0.117h0.121h0.121h0.117h0.121
	h0.121h0.119h0.121h0.121h0.117h0.121h0.121h0.119h0.121h0.121h0.117h0.121h0.121h0.121h0.119h0.121h0.117h0.121h0.121h0.121h0.119
	h0.121h0.121h0.117h0.121h0.121h0.117h0.121h0.123h0.117h0.121h0.121h0.117h0.121h0.121h0.119h0.121h0.121h0.117h0.121H25.6h0.119
	h0.121h0.121h0.117h0.121h0.121h0.119h0.121h0.121h0.117h0.121h0.121h0.119h0.119h0.123c0.949,0,2.098,0.77,2.547,1.713l4.385,9.147
	L23.557,35.182c-0.547,1.146-1.369,2.316-2.813,2.352l-0.043,0.004H2.605c-0.949,0-1.357-0.773-0.906-1.717L17.164,3.546
	C17.615,2.603,18.762,1.833,19.715,1.833z"/>
</svg>
