<?xml version="1.0" encoding="utf-8"?>
<!-- Generator: Adobe Illustrator 16.0.0, SVG Export Plug-In . SVG Version: 6.00 Build 0)  -->
<!DOCTYPE svg PUBLIC "-//W3C//DTD SVG 1.1//EN" "http://www.w3.org/Graphics/SVG/1.1/DTD/svg11.dtd">
<svg version="1.1" id="Capa_1" xmlns="http://www.w3.org/2000/svg" xmlns:xlink="http://www.w3.org/1999/xlink" x="0px" y="0px"
	 width="992.149px" height="271.063px" viewBox="18.008 252.073 992.149 271.063"
	 enable-background="new 18.008 252.073 992.149 271.063" xml:space="preserve">
<title>LogoAFIP17Azul</title>
<path fill="#0075A8" d="M247.807,331.904l-29.9-68.46c-3.204-6.811-9.755-11.371-16.336-11.371h-55.415
	c-7.764,0-14.084,4.329-17.808,12.223L19.438,503.387c-2.093,5.079-1.876,10,0.563,13.854c2.493,3.824,6.81,6.06,11.372,5.888
	h127.916c7.59,0,13.81-3.709,16.61-9.957l15.152-34.201l86.08-0.102h1.01l0,0c7.204-0.176,13.884-3.806,17.952-9.755
	c4.834-6.869,5.642-15.874,2.222-25.398L247.807,331.904z M286.034,454.985c0.08,1.996-0.498,3.964-1.645,5.6
	c-1.482,2.198-3.93,3.552-6.581,3.636h-80.207l46.712-105.057l22.411,49.613c11.213,24.807,18.082,40.046,18.168,40.19
	C285.618,450.894,286.003,452.929,286.034,454.985z M162.751,507.139c-0.52,1.212-2.785,1.284-3.463,1.284H32.96l108.361-237.835
	c0.725-2.027,2.754-3.284,4.892-3.031h55.415c1.4,0.019,2.675,0.807,3.319,2.049l29.771,68.315l0.606,1.443
	c0.343,0.693,0.54,1.45,0.577,2.223c-0.059,0.884-0.294,1.748-0.692,2.54l-0.188,0.375c-2.814,6.393-51.244,115.375-67.175,151.178
	L162.751,507.139z"/>
<path fill="#0075A8" d="M706.232,252.073H600.887c-5.274,0.108-10.269,2.396-13.796,6.32c-3.729,4.349-5.699,9.932-5.526,15.658
	v181.251c0,10.795,7.432,22.354,18.5,22.354h104.739c9.582,0,19.929-8.398,19.929-21.949l0.087-180.891
	c0-8.803-3.348-14.099-6.147-16.971C715.488,254.303,710.993,252.217,706.232,252.073z M706.333,267.196
	c0.854-0.006,1.67,0.356,2.237,0.996c1.427,1.895,2.113,4.244,1.934,6.609v180.891c0,6.739-5.527,7.216-5.585,7.216H600.122
	c-1.443,0-4.127-3.175-4.127-7.678V274.657c-0.257-2.176,0.287-4.371,1.529-6.176c0.944-0.85,2.197-1.272,3.464-1.169
	L706.333,267.196z"/>
<path fill="#0075A8" d="M1006.914,262.622c-3.812-6.342-10.586-10.311-17.981-10.535H767.159c-16.147,0-23.508,12.353-23.508,23.825
	v179.304c-0.144,6.161,2.083,12.143,6.22,16.711c3.579,3.71,8.54,5.765,13.695,5.671h101.752c9.02,0,21.487-7.619,21.487-21.906
	v-40.06h40.046c7.114,0,24.532-1.905,32.483-19.511l48.142-109.069C1011.243,278.467,1011.026,269.361,1006.914,262.622z
	 M995.802,274.758c-0.05,2.136-0.541,4.239-1.442,6.176l-48.055,108.996c-4.33,9.511-14.027,10.939-19.453,10.939l-40.017,0.086
	l0.086-133.89h101.666c2.222,0.318,4.689,0.953,6.075,3.204C995.423,271.643,995.815,273.189,995.802,274.758z M872.49,455.678
	c0,5.297-5.772,7.216-7.216,7.216H763.639c-1.324,0.102-2.629-0.371-3.579-1.299c-1.432-1.792-2.165-4.043-2.063-6.335V275.898
	c0-3.305,1.183-8.846,9.163-8.846H784c27.751,0,80.135,0,81.606,0h0.39c0.346,0.023,0.693,0.023,1.039,0h5.498L872.49,455.678z"/>
<path fill="#0075A8" d="M546.569,252.073H342.156c-13.724,0-22.584,8.658-22.584,22.122v183.113c0,11.545,8.125,20.68,18.5,20.68
	h104.783c9.567,0,19.9-8.385,19.9-21.906v-40.796h17.793c6.263-0.087,11.545,0.288,15.716-1.443c2.99-1.489,5.357-3.989,6.681-7.057
	l19.612-44.505c0.317-0.837,0.967-2.208,1.818-3.939c0.98-2.021,2.222-4.561,3.506-7.504c1.011-2.28,2.165-4.849,3.377-7.533
	l3.781-8.428c1.313-2.973,2.626-5.96,4.069-9.005c0.62-1.342,1.256-2.771,1.861-4.185c0.794-1.818,1.588-3.637,2.41-5.311
	l18.125-40.608c2.306-5.14,1.905-11.089-1.067-15.874C557.47,255.073,552.23,252.118,546.569,252.073z M547.363,269.145
	c0.009,0.329-0.04,0.656-0.145,0.967l-20.203,44.505c-4.979,11.862-5.412,11.862-16.74,11.862h-47.463v-59.426h82.674
	c0.666-0.072,1.312,0.256,1.646,0.837C547.328,268.277,547.408,268.713,547.363,269.145z M482.106,400.826h-19.323v-59.932h48.373
	c0.811,0.03,1.552,0.464,1.977,1.155c0.317,0.499,0.473,1.083,0.447,1.674c0,0.627-0.117,1.248-0.347,1.833l-0.303,0.765
	c-3.982,9.914-13.954,34.432-20.463,47.766c-3.262,6.797-3.262,6.797-10.361,6.797V400.826z M333.988,274.21
	c0-5.57,2.063-7.446,8.167-7.446l33.379,0.115l67.825,0.246h0.52h4.517v188.972c0,6.638-5.483,7.216-5.556,7.216H338.072
	c-2.323,0-4.083-2.555-4.083-5.946V274.21z"/>
</svg>
